<svg width="15" height="15" viewBox="0 0 15 15" fill="none" xmlns="http://www.w3.org/2000/svg">
<g id="Play">
<g id="Iconly/Bulk/Play">
<g id="Play_2">
<path id="Fill-1" opacity="0.5" d="M13.75 7.50301C13.75 10.9461 10.9447 13.75 7.5 13.75C4.05526 13.75 1.25 10.9461 1.25 7.50301C1.25 4.05391 4.05526 1.25 7.5 1.25C10.9447 1.25 13.75 4.05391 13.75 7.50301Z" fill="white"/>
<path id="Fill-4" d="M10 7.50304C10 7.661 9.95028 7.81956 9.85085 7.94654C9.83221 7.97145 9.74521 8.07412 9.67685 8.14095L9.63956 8.1774C9.11754 8.73086 7.81871 9.56318 7.15998 9.82989C7.15998 9.83597 6.76847 9.99453 6.58203 10H6.55717C6.27131 10 6.00408 9.84265 5.86737 9.58748C5.79279 9.44714 5.72443 9.0401 5.71822 9.03463C5.66229 8.6695 5.625 8.11057 5.625 7.49696C5.625 6.85358 5.66229 6.26974 5.73065 5.9113C5.73065 5.90522 5.79901 5.57716 5.84251 5.4678C5.91087 5.31045 6.03516 5.17618 6.19052 5.09113C6.31481 5.03098 6.44531 5 6.58203 5C6.72496 5.00668 6.99219 5.09721 7.09783 5.13973C7.79386 5.40705 9.12376 6.2819 9.63335 6.81652C9.72035 6.90158 9.81357 7.00547 9.83842 7.02916C9.94407 7.16282 10 7.32685 10 7.50304Z" fill="white"/>
</g>
</g>
</g>
</svg>
